<?xml version="1.0" encoding="utf-8"?>
<!-- Generator: Adobe Illustrator 27.5.0, SVG Export Plug-In . SVG Version: 6.00 Build 0)  -->
<svg version="1.1" id="Layer_1" xmlns="http://www.w3.org/2000/svg" xmlns:xlink="http://www.w3.org/1999/xlink" x="0px" y="0px"
	 viewBox="0 0 169.55 114.37" style="enable-background:new 0 0 169.55 114.37;" xml:space="preserve">
<style type="text/css">
	.st0{fill:#FBFADF;}
</style>
<g>
	<path class="st0" d="M47.18,53.96c-1.84-1.04-3.93-1.56-6.25-1.56c-2.14,0-4.06,0.48-5.76,1.44c-1.51,0.85-2.72,2.07-3.67,3.61
		v-4.81h-3.16v33.39h3.3V72.33c0.94,1.46,2.13,2.62,3.57,3.45c1.7,0.97,3.61,1.46,5.71,1.46c2.32,0,4.4-0.52,6.25-1.58
		c1.84-1.05,3.29-2.51,4.34-4.36c1.05-1.86,1.58-4.03,1.58-6.5c0-2.45-0.53-4.61-1.58-6.48C50.47,56.45,49.02,54.99,47.18,53.96z
		 M48.59,69.79c-0.81,1.44-1.89,2.55-3.25,3.34s-2.91,1.18-4.64,1.18c-1.73,0-3.29-0.39-4.66-1.18c-1.38-0.79-2.46-1.91-3.25-3.34
		c-0.79-1.44-1.18-3.1-1.18-4.99c0-1.89,0.39-3.54,1.18-4.97c0.79-1.42,1.87-2.54,3.25-3.34c1.38-0.8,2.93-1.21,4.66-1.21
		c1.74,0,3.28,0.4,4.64,1.21c1.36,0.81,2.45,1.92,3.25,3.34c0.8,1.43,1.21,3.08,1.21,4.97C49.8,66.69,49.4,68.35,48.59,69.79z"/>
	<path class="st0" d="M93.52,74.41c-1.36,0-2.41-0.39-3.13-1.16c-0.73-0.77-1.09-1.87-1.09-3.3V55.37h7.43v-2.74h-7.43v-5.39h-3.3
		v5.39h-4.36v2.74h4.36v14.77c0,2.26,0.62,4.01,1.86,5.25c1.24,1.24,3,1.86,5.29,1.86c0.96,0,1.9-0.14,2.81-0.42
		c0.91-0.28,1.7-0.71,2.34-1.3l-1.16-2.37C96.18,73.99,94.97,74.41,93.52,74.41z"/>
	<path class="st0" d="M111.7,74.41c-1.36,0-2.41-0.39-3.13-1.16c-0.73-0.77-1.09-1.87-1.09-3.3V55.37h7.43v-2.74h-7.43v-5.39h-3.3
		v5.39h-4.36v2.74h4.36v14.77c0,2.26,0.62,4.01,1.86,5.25c1.24,1.24,3,1.86,5.29,1.86c0.96,0,1.9-0.14,2.81-0.42
		c0.91-0.28,1.7-0.71,2.34-1.3l-1.16-2.37C114.36,73.99,113.15,74.41,111.7,74.41z"/>
	<path class="st0" d="M139.61,58.34c-1.07-1.86-2.54-3.31-4.41-4.36c-1.87-1.05-4.02-1.58-6.43-1.58c-2.38,0-4.51,0.53-6.36,1.58
		c-1.86,1.05-3.33,2.51-4.41,4.36c-1.08,1.86-1.62,4.01-1.62,6.46c0,2.41,0.54,4.56,1.62,6.43c1.09,1.87,2.56,3.35,4.44,4.41
		c1.87,1.07,3.99,1.6,6.34,1.6c2.38,0,4.52-0.53,6.41-1.6c1.89-1.07,3.37-2.54,4.44-4.41c1.07-1.87,1.6-4.02,1.6-6.43
		C141.21,62.35,140.67,60.2,139.61,58.34z M136.68,69.79c-0.79,1.44-1.87,2.55-3.23,3.34s-2.92,1.18-4.69,1.18
		c-1.7,0-3.24-0.39-4.6-1.18s-2.45-1.91-3.25-3.34c-0.81-1.44-1.21-3.1-1.21-4.99c0-1.92,0.4-3.59,1.21-5.02
		c0.8-1.42,1.89-2.53,3.25-3.32c1.36-0.79,2.91-1.18,4.64-1.18c1.74,0,3.28,0.4,4.64,1.18c1.36,0.79,2.44,1.9,3.23,3.32
		c0.79,1.42,1.18,3.09,1.18,5.02C137.86,66.69,137.47,68.35,136.68,69.79z"/>
	<path class="st0" d="M79.56,58.34c-0.32-0.55-0.68-1.06-1.07-1.54c-0.73,0.46-1.72,0.96-2.98,1.4c-0.78,0.27-1.69,0.5-2.69,0.69
		c0.2-0.45,0.41-0.94,0.67-1.51c0.59-1.25,1.29-2.87,2.48-4.67c1.18-1.8,2.46-3.38,3.8-4.68c0.33-0.33,0.7-0.59,1.03-0.89
		c0.35-0.27,0.65-0.61,1.01-0.82c0.35-0.24,0.69-0.46,1.02-0.68c0.33-0.22,0.64-0.46,0.98-0.61c0.66-0.35,1.26-0.66,1.79-0.94
		c0.55-0.23,1.05-0.4,1.45-0.56c0.81-0.33,1.27-0.51,1.27-0.51s-0.48-0.04-1.37-0.06c-0.44-0.01-1-0.04-1.64-0.01
		c-0.63,0.09-1.35,0.19-2.16,0.33c-0.41,0.05-0.81,0.2-1.24,0.34c-0.43,0.15-0.87,0.3-1.33,0.46c-0.48,0.14-0.89,0.43-1.36,0.66
		c-0.45,0.26-0.95,0.49-1.4,0.81c-1.84,1.25-3.6,3.01-4.99,5.14c-0.49,0.75-0.9,1.47-1.23,2.16c0.39-1.47,0.86-3.15,1.46-5.1
		c1.73-5.76,3.75-10.77,5.75-14.18c0.45-0.9,1.01-1.58,1.44-2.25c0.23-0.32,0.42-0.64,0.63-0.92c0.22-0.26,0.43-0.49,0.61-0.7
		c0.74-0.87,1.14-1.36,1.14-1.36s-0.55,0.33-1.53,0.92c-0.25,0.16-0.52,0.33-0.83,0.52c-0.29,0.21-0.57,0.47-0.89,0.73
		c-0.62,0.55-1.4,1.13-2.07,1.93c-2.9,3.04-6.01,8.13-7.83,14.2c-0.65,2.11-1.09,3.92-1.41,5.49c-0.32-0.71-0.7-1.46-1.21-2.23
		c-1.25-1.83-2.77-3.28-4.28-4.35c-1.52-1.06-2.98-1.82-4.26-2.31c-1.25-0.56-2.34-0.79-3.07-0.99c-0.73-0.19-1.14-0.27-1.14-0.27
		s0.31,0.28,0.87,0.79c0.56,0.51,1.41,1.14,2.34,2.06c1.84,1.63,4.13,3.93,6.08,6.68c-1.31-0.97-2.7-1.54-3.8-1.82
		c-0.85-0.24-1.56-0.3-2.06-0.33c-0.49-0.03-0.76-0.03-0.76-0.03s0.19,0.2,0.52,0.56c0.34,0.34,0.82,0.82,1.36,1.42
		c1.11,1.18,2.47,2.72,3.77,4.43c1.13,1.47,1.72,2.52,2.22,3.15c-0.99-0.18-1.88-0.41-2.65-0.67c-1.27-0.43-2.26-0.94-2.99-1.39
		c-0.39,0.48-0.75,0.98-1.07,1.52c-0.17,0.29-0.31,0.61-0.45,0.92c-0.77,1.64-1.17,3.48-1.17,5.54c0,2.41,0.54,4.56,1.62,6.43
		c1.09,1.87,2.56,3.35,4.44,4.41c1.87,1.07,3.99,1.6,6.34,1.6c2.38,0,4.52-0.53,6.41-1.6c1.89-1.07,3.37-2.54,4.44-4.41
		c1.07-1.87,1.6-4.02,1.6-6.43c0-2.06-0.4-3.9-1.16-5.55C79.86,58.95,79.72,58.64,79.56,58.34z M76.63,69.79
		c-0.79,1.44-1.87,2.55-3.23,3.34s-2.92,1.18-4.69,1.18c-1.7,0-3.24-0.39-4.6-1.18s-2.45-1.91-3.25-3.34
		c-0.81-1.44-1.21-3.1-1.21-4.99c0-1.52,0.26-2.88,0.77-4.09c2.08,0.8,4.83,1.43,8.31,1.43c3.49,0,6.24-0.63,8.32-1.43
		c0.5,1.21,0.75,2.57,0.75,4.09C77.81,66.69,77.42,68.35,76.63,69.79z"/>
</g>
</svg>
