<svg width="400" height="400" viewBox="0 0 400 400" fill="none" xmlns="http://www.w3.org/2000/svg">
<rect width="400" height="400" fill="#F3F4F6"/>
<path d="M200 100C165.373 100 137.5 127.873 137.5 162.5V237.5C137.5 272.127 165.373 300 200 300C234.627 300 262.5 272.127 262.5 237.5V162.5C262.5 127.873 234.627 100 200 100Z" fill="#E5E7EB"/>
<circle cx="175" cy="175" r="15" fill="#CBD3D6"/>
<circle cx="225" cy="175" r="15" fill="#CBD3D6"/>
<path d="M165 210C165 205.358 168.358 202 173 202H227C231.642 202 235 205.358 235 210V210C235 214.642 231.642 218 227 218H173C168.358 218 165 214.642 165 210V210Z" fill="#CBD3D6"/>
<text x="200" y="330" text-anchor="middle" fill="#949AA5" font-family="system-ui, sans-serif" font-size="14">Placeholder Image</text>
</svg>
